<svg width="43" height="42" viewBox="0 0 43 42" fill="none" xmlns="http://www.w3.org/2000/svg">
<g clip-path="url(#clip0_832_2875)">
<path d="M34.6081 23.2772H14.9112C10.4279 23.2772 6.79346 19.6428 6.79346 15.1595C6.79346 9.23705 11.5946 4.43604 17.5169 4.43604H32.0024C37.9247 4.43595 42.7258 9.23697 42.7258 15.1594C42.7258 19.6427 39.0914 23.2772 34.6081 23.2772Z" fill="url(#paint0_linear_832_2875)"/>
<path d="M34.0638 17.9934C34.6627 17.9934 35.1482 17.5079 35.1482 16.909C35.1482 16.3102 34.6627 15.8247 34.0638 15.8247C33.465 15.8247 32.9795 16.3102 32.9795 16.909C32.9795 17.5079 33.465 17.9934 34.0638 17.9934Z" fill="url(#paint1_linear_832_2875)"/>
<path d="M21.7523 13.9185C21.1534 13.9185 20.668 14.4039 20.668 15.0028C20.668 15.6017 21.1534 16.0871 21.7523 16.0871C22.3512 16.0871 22.8366 15.6017 22.8366 15.0028C22.8366 14.4038 22.3512 13.9185 21.7523 13.9185Z" fill="url(#paint2_linear_832_2875)"/>
<path d="M15.8661 11.7495C15.2672 11.7495 14.7817 12.235 14.7817 12.8339C14.7817 13.4327 15.2672 13.9182 15.8661 13.9182C16.465 13.9182 16.9504 13.4327 16.9504 12.8339C16.9504 12.235 16.465 11.7495 15.8661 11.7495Z" fill="url(#paint3_linear_832_2875)"/>
<path d="M14.3769 20.5781C15.5168 20.5781 16.4409 19.654 16.4409 18.5141C16.4409 17.3743 15.5168 16.4502 14.3769 16.4502C13.237 16.4502 12.313 17.3743 12.313 18.5141C12.313 19.654 13.237 20.5781 14.3769 20.5781Z" fill="url(#paint4_linear_832_2875)"/>
<path d="M41.4058 10.0014C39.5833 6.68427 36.0553 4.43604 32.0027 4.43604H17.5168C14.5562 4.43604 11.8748 5.63592 9.93459 7.57698C9.21895 8.29262 8.60459 9.10792 8.11377 10.0014C8.6293 11.8816 10.7532 13.303 12.9421 12.1731C15.3542 10.9287 17.9698 9.98745 20.3662 9.98745H29.1533C31.5498 9.98745 34.1653 10.9287 36.5774 12.1731C36.8409 12.309 37.1034 12.408 37.3623 12.4737C38.5633 12.7785 39.421 13.8411 39.4299 15.0801C39.43 15.1064 39.4302 15.1329 39.4302 15.1592C39.4302 16.3906 39.1556 17.5575 38.6651 18.603C38.2687 18.2878 37.7598 18.1079 37.208 18.1349C36.1153 18.1883 35.2188 19.0729 35.1521 20.1649C35.139 20.3809 35.1574 20.5906 35.2034 20.7899C35.3934 21.6134 34.9746 22.4556 34.1842 22.7548C33.2915 23.0927 32.3236 23.2777 31.3127 23.2777H34.6084C36.8501 23.2777 38.8793 22.3685 40.3484 20.8993C41.8176 19.4301 42.726 17.4009 42.726 15.1593C42.7259 13.2898 42.2474 11.5316 41.4058 10.0014V10.0014Z" fill="url(#paint5_linear_832_2875)"/>
<path d="M20.3653 7.92787H29.1527C31.5491 7.92787 34.1648 8.86867 36.5765 10.1133C39.9766 11.868 43.2212 7.46587 40.5222 4.75374C37.6003 1.81745 33.5552 0 29.0855 0H20.4325C15.9629 0 11.9177 1.81745 8.99571 4.75366C6.29676 7.46579 9.5413 11.8679 12.9415 10.1132C15.3532 8.86867 17.9688 7.92787 20.3653 7.92787V7.92787Z" fill="url(#paint6_linear_832_2875)"/>
<path d="M40.5229 4.75325C38.042 2.26026 34.7514 0.573671 31.0787 0.121388C31.0787 0.121388 31.0772 0.121388 31.075 0.121471C30.4231 0.0410941 29.7598 0 29.0865 0H25.1369C23.601 0.432353 22.3805 1.02941 21.478 1.58118C19.5295 2.77282 18.5923 4.01059 18.5536 4.06247C18.3494 4.33588 18.4054 4.72294 18.6788 4.92718C18.79 5.00953 18.9192 5.04988 19.0477 5.04988C19.2363 5.04988 19.4216 4.96424 19.5435 4.802C19.5745 4.76008 22.5839 0.839177 29.1909 0.627035C29.901 0.604224 30.6107 0.715977 31.2788 0.957683L31.289 0.961388C26.487 1.51595 24.1396 4.28071 24.0236 4.42079C23.8066 4.683 23.8434 5.07055 24.1048 5.28838C24.2201 5.38432 24.3601 5.4311 24.4993 5.4311C24.676 5.4311 24.8518 5.35566 24.9742 5.20973C24.9817 5.20067 25.7512 4.29438 27.2824 3.47077C28.7352 2.68932 30.3498 2.24058 32.1018 2.12833C33.1904 2.05858 34.2744 2.36485 35.1618 2.99921L35.1751 3.00877C30.1401 3.19562 27.5345 5.9393 27.4083 6.07575C27.1771 6.32553 27.1923 6.71448 27.4413 6.94647C27.56 7.05707 27.711 7.11175 27.8617 7.11175C28.0269 7.11175 28.1919 7.04604 28.3135 6.91617C28.3216 6.9076 29.1402 6.0452 30.7146 5.30773C32.3277 4.55214 34.1074 4.19506 36.0235 4.23813C36.4734 4.24826 36.9046 4.4296 37.2221 4.74839C37.2238 4.75004 37.2254 4.75168 37.2271 4.75333C39.0026 6.53751 38.2057 9.05281 36.4848 10.0658C36.5155 10.0815 36.5464 10.097 36.577 10.1129C39.9773 11.8675 43.2218 7.46538 40.5229 4.75325V4.75325Z" fill="url(#paint7_linear_832_2875)"/>
<path d="M20.4325 8.2353e-05C20.4221 8.2353e-05 20.4118 8.2353e-05 20.4015 8.2353e-05C18.7212 0.00321177 17.1035 0.654788 15.8764 1.80262C14.6321 2.9666 14.0946 3.98901 14.0485 4.07894C13.8945 4.382 14.0147 4.75259 14.317 4.90824C14.4067 4.95435 14.5031 4.97659 14.5986 4.97659C14.8218 4.97659 15.0384 4.85388 15.1479 4.64224C15.1537 4.63153 15.7079 3.57988 17.0231 2.44259C18.344 1.30035 19.9219 0.482588 21.7312 0H20.4325V8.2353e-05Z" fill="url(#paint8_linear_832_2875)"/>
<path d="M28.5402 41.9999H8.84328C4.35999 41.9999 0.725586 38.3655 0.725586 33.8822C0.725586 27.9598 5.52668 23.1587 11.449 23.1587H25.9345C31.8569 23.1587 36.6579 27.9598 36.6579 33.8821C36.6579 38.3655 33.0235 41.9999 28.5402 41.9999Z" fill="url(#paint9_linear_832_2875)"/>
<path d="M27.996 36.716C28.5948 36.716 29.0803 36.2306 29.0803 35.6317C29.0803 35.0328 28.5948 34.5474 27.996 34.5474C27.3971 34.5474 26.9116 35.0328 26.9116 35.6317C26.9116 36.2306 27.3971 36.716 27.996 36.716Z" fill="url(#paint10_linear_832_2875)"/>
<path d="M15.6844 32.6411C15.0856 32.6411 14.6001 33.1266 14.6001 33.7255C14.6001 34.3243 15.0856 34.8098 15.6844 34.8098C16.2833 34.8098 16.7688 34.3243 16.7688 33.7255C16.7688 33.1266 16.2833 32.6411 15.6844 32.6411Z" fill="url(#paint11_linear_832_2875)"/>
<path d="M9.79821 30.4722C9.19934 30.4722 8.71387 30.9576 8.71387 31.5565C8.71387 32.1554 9.19934 32.6409 9.79821 32.6409C10.3971 32.6409 10.8826 32.1554 10.8826 31.5565C10.8825 30.9576 10.397 30.4722 9.79821 30.4722Z" fill="url(#paint12_linear_832_2875)"/>
<path d="M8.30904 39.3007C9.44892 39.3007 10.373 38.3767 10.373 37.2368C10.373 36.0969 9.44892 35.1729 8.30904 35.1729C7.16917 35.1729 6.24512 36.0969 6.24512 37.2368C6.24512 38.3767 7.16917 39.3007 8.30904 39.3007Z" fill="url(#paint13_linear_832_2875)"/>
<path d="M35.3379 28.7241C33.5154 25.4069 29.9874 23.1587 25.9348 23.1587H11.449C8.48837 23.1587 5.80696 24.3586 3.86672 26.2996C3.15107 27.0153 2.53672 27.8306 2.0459 28.7241C2.56143 30.6042 4.68531 32.0256 6.87425 30.8958C9.28637 29.6514 11.9019 28.7101 14.2984 28.7101H23.0854C25.4819 28.7101 28.0974 29.6514 30.5095 30.8958C30.773 31.0316 31.0355 31.1306 31.2944 31.1964C32.4954 31.5011 33.3531 32.5637 33.362 33.8027C33.3622 33.8291 33.3623 33.8555 33.3623 33.8819C33.3623 35.1132 33.0878 36.2802 32.5972 37.3257C32.2008 37.0105 31.6919 36.8305 31.1401 36.8575C30.0474 36.911 29.151 37.7955 29.0843 38.8875C29.0711 39.1036 29.0895 39.3133 29.1355 39.5125C29.3255 40.3361 28.9067 41.1783 28.1163 41.4775C27.2236 41.8154 26.2558 42.0003 25.2448 42.0003H28.5406C30.7822 42.0003 32.8114 41.0912 34.2806 39.622C35.7497 38.1528 36.6581 36.1236 36.6581 33.882C36.658 32.0125 36.1795 30.2542 35.3379 28.7241V28.7241Z" fill="url(#paint14_linear_832_2875)"/>
<path d="M14.2985 26.6504H23.0859C25.4823 26.6504 28.098 27.5912 30.5096 28.8358C33.9098 30.5905 37.1544 26.1884 34.4554 23.4763C31.5335 20.5401 27.4884 18.7227 23.0187 18.7227H14.3656C9.89596 18.7227 5.85078 20.5401 2.92882 23.4763C0.229863 26.1884 3.4744 30.5905 6.87459 28.8358C9.2863 27.5913 11.9019 26.6504 14.2985 26.6504V26.6504Z" fill="url(#paint15_linear_832_2875)"/>
<path d="M34.4555 23.4759C31.9746 20.9828 28.684 19.2963 25.0113 18.844C25.0113 18.844 25.0098 18.844 25.0077 18.8441C24.3557 18.7638 23.6924 18.7227 23.0192 18.7227H19.0695C17.5336 19.155 16.3132 19.7521 15.4106 20.3038C13.4621 21.4955 12.5249 22.7333 12.4862 22.7851C12.282 23.0585 12.338 23.4456 12.6114 23.6498C12.7226 23.7322 12.8519 23.7725 12.9803 23.7725C13.1689 23.7725 13.3542 23.6869 13.4761 23.5247C13.5071 23.4828 16.5165 19.5618 23.1235 19.3497C23.8336 19.3269 24.5433 19.4386 25.2114 19.6803L25.2216 19.684C20.4196 20.2386 18.0722 23.0034 17.9563 23.1435C17.7393 23.4057 17.776 23.7932 18.0375 24.011C18.1527 24.107 18.2927 24.1538 18.4319 24.1538C18.6087 24.1538 18.7844 24.0783 18.9068 23.9324C18.9144 23.9233 19.6839 23.017 21.215 22.1934C22.6678 21.412 24.2824 20.9632 26.0344 20.851C27.1231 20.7812 28.207 21.0875 29.0944 21.7219L29.1078 21.7314C24.0727 21.9183 21.4671 24.662 21.3409 24.7984C21.1097 25.0482 21.1249 25.4372 21.3739 25.6691C21.4927 25.7797 21.6436 25.8344 21.7943 25.8344C21.9595 25.8344 22.1245 25.7687 22.2461 25.6388C22.2543 25.6303 23.0728 24.7679 24.6472 24.0304C26.2603 23.2748 28.0401 22.9177 29.9562 22.9608C30.406 22.9709 30.8372 23.1523 31.1547 23.4711L31.1597 23.476C32.9352 25.2602 32.1384 27.7755 30.4174 28.7884C30.4481 28.8042 30.479 28.8197 30.5097 28.8355C33.9098 30.5902 37.1544 26.1881 34.4555 23.4759V23.4759Z" fill="url(#paint16_linear_832_2875)"/>
<path d="M14.3651 18.7227C14.3547 18.7227 14.3445 18.7227 14.3341 18.7227C12.6538 18.7259 11.0361 19.3774 9.80903 20.5253C8.56476 21.6892 8.02724 22.7116 7.98112 22.8016C7.82712 23.1046 7.94736 23.4752 8.2496 23.6309C8.33936 23.677 8.43571 23.6992 8.53124 23.6992C8.75442 23.6992 8.97101 23.5765 9.08054 23.3649C9.0863 23.3542 9.64054 22.3025 10.9557 21.1652C12.2767 20.023 13.8545 19.2052 15.6638 18.7227H14.3651V18.7227Z" fill="url(#paint17_linear_832_2875)"/>
</g>
<defs>
<linearGradient id="paint0_linear_832_2875" x1="7.75987" y1="13.8566" x2="41.8542" y2="13.8566" gradientUnits="userSpaceOnUse">
<stop stop-color="#F8F6F7"/>
<stop offset="0.1788" stop-color="#F8F6F7"/>
<stop offset="1" stop-color="#E7E6F5"/>
</linearGradient>
<linearGradient id="paint1_linear_832_2875" x1="2.82676" y1="16.909" x2="42.4525" y2="16.909" gradientUnits="userSpaceOnUse">
<stop stop-color="#F8F6F7"/>
<stop offset="1" stop-color="#D1CEEB"/>
</linearGradient>
<linearGradient id="paint2_linear_832_2875" x1="2.82696" y1="15.0027" x2="42.4527" y2="15.0027" gradientUnits="userSpaceOnUse">
<stop stop-color="#F8F6F7"/>
<stop offset="1" stop-color="#D1CEEB"/>
</linearGradient>
<linearGradient id="paint3_linear_832_2875" x1="2.82639" y1="12.8339" x2="42.4522" y2="12.8339" gradientUnits="userSpaceOnUse">
<stop stop-color="#F8F6F7"/>
<stop offset="1" stop-color="#D1CEEB"/>
</linearGradient>
<linearGradient id="paint4_linear_832_2875" x1="2.82657" y1="18.5141" x2="42.4524" y2="18.5141" gradientUnits="userSpaceOnUse">
<stop stop-color="#F8F6F7"/>
<stop offset="1" stop-color="#D1CEEB"/>
</linearGradient>
<linearGradient id="paint5_linear_832_2875" x1="2.82646" y1="13.8568" x2="42.4522" y2="13.8568" gradientUnits="userSpaceOnUse">
<stop stop-color="#F8F6F7"/>
<stop offset="1" stop-color="#D1CEEB"/>
</linearGradient>
<linearGradient id="paint6_linear_832_2875" x1="8.67256" y1="5.25741" x2="48.9854" y2="5.25741" gradientUnits="userSpaceOnUse">
<stop stop-color="#FE646F"/>
<stop offset="0.593" stop-color="#FB2B3A"/>
<stop offset="1" stop-color="#C41926"/>
</linearGradient>
<linearGradient id="paint7_linear_832_2875" x1="-0.427109" y1="5.25716" x2="38.8938" y2="5.25716" gradientUnits="userSpaceOnUse">
<stop stop-color="#FE646F"/>
<stop offset="0.593" stop-color="#FB2B3A"/>
<stop offset="1" stop-color="#C41926"/>
</linearGradient>
<linearGradient id="paint8_linear_832_2875" x1="-0.427409" y1="2.48838" x2="38.8935" y2="2.48838" gradientUnits="userSpaceOnUse">
<stop stop-color="#FE646F"/>
<stop offset="0.593" stop-color="#FB2B3A"/>
<stop offset="1" stop-color="#C41926"/>
</linearGradient>
<linearGradient id="paint9_linear_832_2875" x1="1.692" y1="32.5793" x2="35.7864" y2="32.5793" gradientUnits="userSpaceOnUse">
<stop stop-color="#F8F6F7"/>
<stop offset="0.1788" stop-color="#F8F6F7"/>
<stop offset="1" stop-color="#E7E6F5"/>
</linearGradient>
<linearGradient id="paint10_linear_832_2875" x1="-3.24116" y1="35.6317" x2="36.3846" y2="35.6317" gradientUnits="userSpaceOnUse">
<stop stop-color="#F8F6F7"/>
<stop offset="1" stop-color="#D1CEEB"/>
</linearGradient>
<linearGradient id="paint11_linear_832_2875" x1="-3.24092" y1="33.7255" x2="36.3848" y2="33.7255" gradientUnits="userSpaceOnUse">
<stop stop-color="#F8F6F7"/>
<stop offset="1" stop-color="#D1CEEB"/>
</linearGradient>
<linearGradient id="paint12_linear_832_2875" x1="-3.24156" y1="31.5565" x2="36.3842" y2="31.5565" gradientUnits="userSpaceOnUse">
<stop stop-color="#F8F6F7"/>
<stop offset="1" stop-color="#D1CEEB"/>
</linearGradient>
<linearGradient id="paint13_linear_832_2875" x1="-3.24127" y1="37.2369" x2="36.3844" y2="37.2369" gradientUnits="userSpaceOnUse">
<stop stop-color="#F8F6F7"/>
<stop offset="1" stop-color="#D1CEEB"/>
</linearGradient>
<linearGradient id="paint14_linear_832_2875" x1="-3.24149" y1="32.5795" x2="36.3843" y2="32.5795" gradientUnits="userSpaceOnUse">
<stop stop-color="#F8F6F7"/>
<stop offset="1" stop-color="#D1CEEB"/>
</linearGradient>
<linearGradient id="paint15_linear_832_2875" x1="2.60566" y1="23.9801" x2="42.9185" y2="23.9801" gradientUnits="userSpaceOnUse">
<stop stop-color="#FBC56D"/>
<stop offset="0.5841" stop-color="#FE9738"/>
<stop offset="0.9984" stop-color="#FB2B3A"/>
</linearGradient>
<linearGradient id="paint16_linear_832_2875" x1="1.04122" y1="23.9798" x2="36.8349" y2="23.9798" gradientUnits="userSpaceOnUse">
<stop stop-color="#FBC56D"/>
<stop offset="0.5841" stop-color="#FE9738"/>
<stop offset="0.9984" stop-color="#FB2B3A"/>
</linearGradient>
<linearGradient id="paint17_linear_832_2875" x1="1.04091" y1="21.211" x2="36.8345" y2="21.211" gradientUnits="userSpaceOnUse">
<stop stop-color="#FBC56D"/>
<stop offset="0.5841" stop-color="#FE9738"/>
<stop offset="0.9984" stop-color="#FB2B3A"/>
</linearGradient>
<clipPath id="clip0_832_2875">
<rect width="42" height="42" fill="white" transform="translate(0.725586)"/>
</clipPath>
</defs>
</svg>
